<svg width="20" height="20" viewBox="0 0 20 20" fill="none" xmlns="http://www.w3.org/2000/svg">
<g clip-path="url(#clip0_9353_119130)">
<path d="M10 20C15.5228 20 20 15.5228 20 10C20 4.47715 15.5228 0 10 0C4.47715 0 0 4.47715 0 10C0 15.5228 4.47715 20 10 20Z" fill="white"/>
<path d="M19.9998 9.99992C19.9998 6.03531 17.6926 2.60969 14.3477 0.992188V19.0076C17.6926 17.3902 19.9998 13.9645 19.9998 9.99992V9.99992Z" fill="#338AF3"/>
<path d="M0 9.99992C0 13.9645 2.30723 17.3902 5.65219 19.0077V0.992188C2.30723 2.60969 0 6.03531 0 9.99992Z" fill="#338AF3"/>
<path d="M12.6132 11.691L10.9223 10.0001L12.5318 8.39053L12.4589 7.54045L11.9981 7.07959L9.99996 9.07772L8.00184 7.07959L7.54105 7.54045L7.46812 8.39053L9.07762 10.0001L7.38672 11.691L8.30906 12.6132L9.99996 10.9224L11.6909 12.6132L12.6132 11.691Z" fill="#ACABB1"/>
<path d="M12.4592 7.54053L11.5369 8.46283C11.9303 8.85623 12.1737 9.39971 12.1737 10C12.1737 11.2006 11.2004 12.1739 9.99977 12.1739C8.79918 12.1739 7.82582 11.2006 7.82582 10C7.82582 9.39971 8.06918 8.85623 8.46258 8.46283L7.54027 7.54053C6.91078 8.1699 6.52148 9.03947 6.52148 10C6.52148 11.921 8.07875 13.4783 9.99973 13.4783C11.9207 13.4783 13.478 11.921 13.478 10C13.478 9.03951 13.0887 8.16994 12.4592 7.54053V7.54053Z" fill="#6DA544"/>
</g>
<defs>
<clipPath id="clip0_9353_119130">
<rect width="20" height="20" fill="white"/>
</clipPath>
</defs>
</svg>
