<svg width="24" height="24" viewBox="0 0 24 24" fill="none" xmlns="http://www.w3.org/2000/svg">
<path d="M10.2938 4.79293C11.0738 3.51701 12.9271 3.51687 13.7069 4.79293L21.1405 16.958C21.9546 18.2906 20.9952 20 19.4335 20H4.56628C3.0046 20 2.04532 18.2906 2.85925 16.958L10.2938 4.79293Z" fill="#885403"/>
<path d="M12.8255 13.2878C12.8041 13.7211 12.4466 14.0615 12.0127 14.0615C11.5789 14.0615 11.2213 13.7211 11.1999 13.2878L10.9685 8.59708C10.939 8.00013 11.4151 7.5 12.0127 7.5C12.6104 7.5 13.0865 8.00013 13.057 8.59708L12.8255 13.2878ZM10.8889 16.3583C10.8889 15.9822 10.9842 15.6979 11.1746 15.5054C11.3651 15.3128 11.6424 15.2166 12.0064 15.2166C12.3577 15.2166 12.6286 15.3151 12.8191 15.5121C13.0138 15.7091 13.1111 15.9912 13.1111 16.3583C13.1111 16.712 13.0138 16.9918 12.8191 17.1978C12.6244 17.3993 12.3535 17.5 12.0064 17.5C11.6508 17.5 11.3757 17.4015 11.181 17.2045C10.9863 17.003 10.8889 16.721 10.8889 16.3583Z" fill="#FFF6C7"/>
</svg>
